inDegrees=yes
name=ik_S52_A04_T03
DataType=double
version=3
OpenSimVersion=4.3-2021-08-27-4bc7ad9
endheader
time	pelvis_tilt	pelvis_list	pelvis_rotation	pelvis_tx	pelvis_ty	pelvis_tz	hip_flexion_r	hip_adduction_r	hip_rotation_r	knee_angle_r	knee_angle_r_beta	ankle_angle_r	subtalar_angle_r	mtp_angle_r	hip_flexion_l	hip_adduction_l	hip_rotation_l	knee_angle_l	knee_angle_l_beta	ankle_angle_l	subtalar_angle_l	mtp_angle_l	lumbar_extension	lumbar_bending	lumbar_rotation	arm_flex_r	arm_add_r	arm_rot_r	elbow_flex_r	pro_sup_r	wrist_flex_r	wrist_dev_r	arm_flex_l	arm_add_l	arm_rot_l	elbow_flex_l	pro_sup_l	wrist_flex_l	wrist_dev_l
7.219999999999934	29.12087758238063	4.583962610175398	15.9401715199322	0	0.9399999999999999	0	29.87742944303307	-28.89983373203118	13.2360233999641	67.5095424508294	1.178263792281855	0	0	0	38.00548171798172	-28.73439762684246	-3.418403902200004	80.86844365062245	1.411420602666865	0	0	0	0	0	0	16.44375896953515	-16.44375896953515	2.760566900113515	56.09334220042267	87.23943325927976	0	0	16.44375896953515	-16.44375896953515	2.760566900113515	56.09334220042267	87.23943325886255	0	0
7.239999999999934	30.66539167128944	5.250394138283899	16.39657419141104	0	0.9399999999999999	0	27.21300152462556	-29.34337069620883	12.46361902637612	67.00848567029709	1.169518701722124	0	0	0	36.53080989343138	-28.20571531266399	-3.022374622056232	80.86223753438315	1.411312285504728	0	0	0	0	0	0	16.45690204513613	-16.45690204513613	2.762537119921883	56.12126173752491	87.23746303958212	0	0	16.45690204513613	-16.45690204513613	2.762537119921883	56.12126173752491	87.23746303916525	0	0
7.259999999999933	30.36957347401811	5.289258302501303	16.91214066587925	0	0.9399999999999999	0	26.46154473953822	-29.71172862384601	11.6797563370301	66.53316156554277	1.161222731080066	0	0	0	35.39172343730005	-27.87644151372786	-3.652188903481264	80.38852540669512	1.403044449169944	0	0	0	0	0	0	16.46810982129506	-16.46810982129506	2.764228003413858	56.14526911375211	87.23577215618529	0	0	16.46810982129506	-16.46810982129506	2.764228003413858	56.14526911375211	87.23577215576871	0	0
7.279999999999933	29.16552438626861	4.734163477581311	16.97171571894803	0	0.9399999999999999	0	26.91053778487392	-29.50549416247019	11.28485971147937	66.26583431615744	1.156556990397992	0	0	0	35.9105283522897	-28.15252176927944	-3.796255489225727	80.11009112003265	1.398184854117242	0	0	0	0	0	0	16.5954426302623	-16.5954426302623	2.780792198230031	56.36870762766663	87.21920796227924	0	0	16.5954426302623	-16.5954426302623	2.780792198230031	56.36870762766663	87.21920796186579	0	0
7.299999999999932	28.46626549922341	4.570369460035153	17.11668508509876	0	0.9399999999999999	0	27.53603226619321	-29.66880635814662	11.23237221814775	66.34956841605216	1.158018426137349	0	0	0	35.80811993480652	-28.18620059131135	-4.002223099157563	79.98486643937069	1.395999271134932	0	0	0	0	0	0	16.59779103403653	-16.59779103403653	2.781143455275834	56.37367609792872	87.21885670525315	0	0	16.59779103403653	-16.59779103403653	2.781143455275834	56.37367609792872	87.21885670483979	0	0
7.319999999999932	28.04893223792407	4.649731666932647	17.24219674578167	0	0.9399999999999999	0	27.15519160791366	-29.83343135618758	10.83072812619372	66.21396487644083	1.155651697893773	0	0	0	35.25586500337599	-28.03119908417979	-4.340912896922451	79.59432160161791	1.389182977839479	0	0	0	0	0	0	16.60235946397653	-16.60235946397653	2.781829818512525	56.38339755248062	87.21817034205506	0	0	16.60235946397653	-16.60235946397653	2.781829818512525	56.38339755248062	87.21817034164182	0	0
7.339999999999931	27.63724525331686	4.574614824676489	17.28010816199066	0	0.9399999999999999	0	26.74853735649078	-29.85602542988647	10.52799109871412	65.74597690047429	1.147483766853413	0	0	0	34.72851512432558	-28.00196005795919	-4.7013808037797	79.1330759244175	1.381132722111741	0	0	0	0	0	0	16.608050445448	-16.608050445448	2.78268549342418	56.39551917506792	87.21731466719154	0	0	16.608050445448	-16.608050445448	2.78268549342418	56.39551917506792	87.21731466677844	0	0
7.359999999999931	26.63434968189151	4.329962414528203	17.4612818022232	0	0.9399999999999999	0	26.92369605092705	-29.8559686159678	10.12686460250254	65.11206929524661	1.136419991988757	0	0	0	34.82925224442598	-27.81992856989972	-5.173294129012419	78.55543768367387	1.371051032925337	0	0	0	0	0	0	16.75466393764307	-16.75466393764307	2.801718725092898	56.65204296420058	87.19828143656819	0	0	16.75466393764307	-16.75466393764307	2.801718725092898	56.65204296420058	87.19828143615864	0	0
